<?xml version="1.0" encoding="UTF-8"?>
<svg width="36px" height="39px" viewBox="0 0 36 39" version="1.1" xmlns="http://www.w3.org/2000/svg" xmlns:xlink="http://www.w3.org/1999/xlink">
    <!-- Generator: Sketch 48.2 (47327) - http://www.bohemiancoding.com/sketch -->
    <title>排行榜</title>
    <desc>Created with Sketch.</desc>
    <defs></defs>
    <g id="MIPGO-Icon" stroke="none" stroke-width="1" fill="none" fill-rule="evenodd" transform="translate(-198.000000, -119.000000)">
        <g id="排行榜" transform="translate(192.000000, 115.000000)" fill="#555555">
            <path d="M31,39.9997 L39,39.9997 L39,24.9997 L31,24.9997 L31,39.9997 Z M28,39.9997 L20,39.9997 L20,15.9997 L20,6.9997 L28,6.9997 L28,21.9997 L28,39.9997 Z M9,39.9997 L17,39.9997 L17,18.9997 L9,18.9997 L9,39.9997 Z M41.941,24.7018408 C41.659,23.2538519 40.467,22.1588603 39,21.9998615 L30.974,21.9998615 L31,7.89197006 L31,6.99997692 C31,5.34298967 29.656,4 28,4 L21,4 C18.75,4.14599888 17,6.01398451 17,8.26796717 L17,15.9999077 L9,15.9999077 L8.758,16.1119068 C7.215,16.8269013 6.165,18.3068899 6,19.9998769 L6,39.9997231 C6,41.6567103 7.343,42.9997 9,42.9997 L17,42.9997 L20,42.9997 L28,42.9997 L30.934,42.9997 L39,42.9997 C40.657,42.9997 42,41.6567103 42,39.9997231 L42,24.9998385 L41.941,24.7018408 Z" id="Page-1"></path>
        </g>
    </g>
</svg>