<?xml version="1.0" encoding="UTF-8"?>
<svg width="42px" height="39px" viewBox="0 0 42 39" version="1.1" xmlns="http://www.w3.org/2000/svg" xmlns:xlink="http://www.w3.org/1999/xlink">
    <!-- Generator: Sketch 48.2 (47327) - http://www.bohemiancoding.com/sketch -->
    <title>免费</title>
    <desc>Created with Sketch.</desc>
    <defs></defs>
    <g id="MIPGO-Icon" stroke="none" stroke-width="1" fill="none" fill-rule="evenodd" transform="translate(-625.000000, -121.000000)">
        <g id="免费" transform="translate(622.000000, 116.000000)" fill="#545454" fill-rule="nonzero">
            <g id="免费-0" transform="translate(3.000000, 5.000000)">
                <path d="M40.9,25.7 C40.5,25.3 39.8,25.1 39.3,25.4 C38.2,25.9 37.1,26.2 36.2,26.3 C36.2,26.2 36.2,26.1 36.2,26 C36.2,22.7 34.3,19.9 31.5,18.5 L31.5,10.4 L32.9,10.4 C32.9,10.4 34.1,10.4 34.7,10.4 C35.1,10.4 35.2,10 34.8,9.8 C30.5,7.5 29,4.1 28.7,1.3 C28.7,0.9 28.1,0.4 27.7,0.5 C24.1,1.5 14.9,1.8 11,0.5 C10.7,0.4 10.3,0.8 10.2,1 C10,3.8 8.6,7.1 4.1,9.8 C3.6,10.2 3.7,10.5 4.1,10.5 C5.4,10.5 7.5,10.5 7.5,10.5 L7.5,18.8 C7.3,19.1 7,19.3 6.8,19.6 C3.1,20.1 0.3,23.2 0.3,26.9 C0.3,30.8 3.4,34 7.4,34.2 C10.3,37.1 15.6,38.9 21.4,38.9 C30.5,38.9 38.1,34.5 41.2,27.5 C41.5,26.8 41.3,26.2 40.9,25.7 Z M12.7,3.9 C16.8,4.5 22.4,4.4 26.2,3.8 C26.7,5.7 27.6,7.4 28.9,8.9 C28.6,9.4 28.5,9.9 28.5,10.5 L28.5,17.7 C28.1,17.7 27.7,17.6 27.3,17.6 C26.1,17.6 24.9,17.8 23.8,18.3 C21.7,16.2 18.9,15 15.9,15 C14,15 12.1,15.5 10.5,16.4 L10.5,10.5 C10.5,9.9 10.3,9.3 10,8.8 C11.4,7.1 12.3,5.4 12.7,3.9 Z M21.4,35.8 C16.2,35.8 11.4,34.2 9.2,31.6 C8.9,31.3 8.4,31.1 8,31.1 C5.5,31.1 3.4,29.2 3.4,26.7 C3.4,24.4 5.3,22.4 7.8,22.4 C8.3,22.4 8.8,22.1 9,21.7 C10.4,19.3 13.1,17.9 15.9,17.9 C18.4,17.9 20.8,19 22.3,21 C22.8,21.6 23.6,21.7 24.2,21.4 C25.1,20.9 26.2,20.6 27.3,20.6 C30.5,20.6 33.1,23.1 33.1,26.1 C33.1,26.6 33,27.1 32.9,27.6 C32.8,28 32.8,28.5 33.1,28.9 C33.4,29.3 33.8,29.5 34.3,29.5 C35,29.5 35.7,29.5 36.5,29.3 C33.3,33.4 27.8,35.8 21.4,35.8 Z" id="Shape"></path>
            </g>
        </g>
    </g>
</svg>