<?xml version="1.0" encoding="UTF-8"?>
<svg width="37px" height="37px" viewBox="0 0 37 37" version="1.1" xmlns="http://www.w3.org/2000/svg" xmlns:xlink="http://www.w3.org/1999/xlink">
    <!-- Generator: Sketch 48.2 (47327) - http://www.bohemiancoding.com/sketch -->
    <title>推荐</title>
    <desc>Created with Sketch.</desc>
    <defs></defs>
    <g id="MIPGO-Icon" stroke="none" stroke-width="1" fill="none" fill-rule="evenodd" transform="translate(-573.000000, -122.000000)">
        <g id="推荐" transform="translate(568.000000, 116.000000)" fill="#555555">
            <path d="M20.0002,38.1601252 C20.0002,38.7091086 19.5522,39 19.0002,39 L9.0002,39 C8.4482,39 8.0002,38.7091086 8.0002,38.1601252 L8.0002,10 C8.0002,9.45499473 8.4522,9.00596721 9.0002,9 L19.0002,9 C19.5522,8.99502732 19.9942,9.63088953 20.0002,10.1798729 C20.0002,10.0599576 20.0002,19.3867084 20.0002,38.1601252 Z M8.0002,6 C6.3432,6 5.0002,7.68301762 5.0002,9.34620839 L5.0002,39.3237916 C5.0002,40.9869824 6.3432,42 8.0002,42 L20.0002,42 C21.6572,42 23.0002,40.9869824 23.0002,39.3237916 L23.0002,9.34620839 C23.0002,7.68301762 21.6572,6 20.0002,6 L8.0002,6 Z" id="Fill-1"></path>
            <polygon id="Fill-3" points="11 20.3345 17 20.3345 17 17.3345 11 17.3345"></polygon>
            <path d="M37.2936,38.9717 L30.3206,39.5817 C29.7706,39.6297 29.2856,39.2237 29.2366,38.6727 L26.7956,10.7647 C26.7476,10.2207 27.1466,9.7387 27.6896,9.6827 L34.6536,8.9697 C35.2036,8.9137 35.6946,9.3127 35.7506,9.8627 C35.7516,9.8677 35.7516,9.8727 35.7526,9.8777 L38.2026,37.8887 C38.2506,38.4387 37.8446,38.9237 37.2936,38.9717 Z M38.6536,8.7497 C38.5086,7.0887 37.0536,5.8677 35.4026,6.0117 L26.4486,6.7947 C24.7976,6.9397 23.5766,8.3947 23.7216,10.0447 L26.3356,39.9307 C26.4806,41.5807 27.9356,42.8027 29.5856,42.6587 L38.4306,41.8837 C40.0756,41.7407 41.2956,40.2917 41.1576,38.6457 L38.6536,8.7497 Z" id="Fill-5"></path>
        </g>
    </g>
</svg>