<?xml version="1.0" encoding="UTF-8"?>
<svg width="36px" height="36px" viewBox="0 0 36 36" version="1.1" xmlns="http://www.w3.org/2000/svg" xmlns:xlink="http://www.w3.org/1999/xlink">
    <!-- Generator: Sketch 48.2 (47327) - http://www.bohemiancoding.com/sketch -->
    <title>分类</title>
    <desc>Created with Sketch.</desc>
    <defs></defs>
    <g id="MIPGO-Icon" stroke="none" stroke-width="1" fill="none" fill-rule="evenodd" transform="translate(-252.000000, -121.000000)">
        <g id="分类" transform="translate(246.000000, 115.000000)" fill="#555555" fill-rule="nonzero">
            <path d="M9,28 L9,39 L20,39 L20,28 L9,28 Z M9,25 L20,25 C21.6568542,25 23,26.3431458 23,28 L23,39 C23,40.6568542 21.6568542,42 20,42 L9,42 C7.34314575,42 6,40.6568542 6,39 L6,28 C6,26.3431458 7.34314575,25 9,25 Z" id="Path"></path>
            <path d="M9,9 L9,20 L20,20 L20,9 L9,9 Z M9,6 L20,6 C21.6568542,6 23,7.34314575 23,9 L23,20 C23,21.6568542 21.6568542,23 20,23 L9,23 C7.34314575,23 6,21.6568542 6,20 L6,9 C6,7.34314575 7.34314575,6 9,6 Z" id="Path"></path>
            <path d="M28,28 L28,39 L39,39 L39,28 L28,28 Z M28,25 L39,25 C40.6568542,25 42,26.3431458 42,28 L42,39 C42,40.6568542 40.6568542,42 39,42 L28,42 C26.3431458,42 25,40.6568542 25,39 L25,28 C25,26.3431458 26.3431458,25 28,25 Z" id="Path"></path>
            <path d="M28,9 L28,20 L39,20 L39,9 L28,9 Z M28,6 L39,6 C40.6568542,6 42,7.34314575 42,9 L42,20 C42,21.6568542 40.6568542,23 39,23 L28,23 C26.3431458,23 25,21.6568542 25,20 L25,9 C25,7.34314575 26.3431458,6 28,6 Z" id="Path"></path>
        </g>
    </g>
</svg>