<svg width="50px" height="54px" viewBox="0 0 50 54" version="1.1" xmlns="http://www.w3.org/2000/svg" xmlns:xlink="http://www.w3.org/1999/xlink">
    <!-- Generator: Sketch 48.2 (47327) - http://www.bohemiancoding.com/sketch -->
    <desc>Created with Sketch.</desc>
    <defs></defs>
    <g id="小说-首页" stroke="none" stroke-width="1" fill="none" fill-rule="evenodd">
        <g id="1.小说-首页" transform="translate(-1133.000000, -101.000000)" fill="#333333" fill-rule="nonzero">
            <g id="head">
                <g id="攻略" transform="translate(1125.000000, 95.000000)">
                    <path d="M12.8862897,59.8801193 C10.3278233,59.8801193 8.25377655,57.8060726 8.25377655,55.2476062 L8.25377655,10.9154663 C8.25377655,8.35699997 10.3278233,6 12.8862897,6 L53.0347366,6 C55.593203,6 57.7537766,8.35699997 57.7537766,10.9154663 L57.7537766,55.2476062 C57.7537766,56.4762251 57.2657096,57.6545229 56.3969449,58.5232877 C55.5281801,59.3920524 54.2633555,59.8801193 53.0347366,59.8801193 L12.8862897,59.8801193 Z M44.9951744,10.2559376 L34.0070076,10.2559376 L34.0070076,27.5078468 L38.3836937,23.7393088 C38.5266582,23.6568244 38.6653334,23.5852946 38.8165978,23.5360742 C39.2874285,23.3394632 39.8173622,23.3394632 40.2881928,23.5360742 C40.4391355,23.5852947 40.5657778,23.65676 40.7089996,23.7393088 L44.9951744,27.5078468 L44.9951744,10.2559376 Z M49.1232376,10.3758183 L49.1232376,31.7561014 C49.1232376,32.2073135 49.054637,32.5366117 48.8610354,32.8783278 C48.7883306,33.004242 48.6745516,33.1807279 48.5833168,33.2874044 C48.3741798,33.4744301 48.1840177,33.6103413 47.9203778,33.7301311 C47.8229662,33.7872957 47.7213098,33.8368978 47.6163048,33.8785002 C47.4503169,33.9326495 47.2785986,33.9673257 47.1046051,33.981831 C47.0118905,33.9930906 46.7489311,34.0125214 46.7030563,34.009819 C46.388691,33.9640065 46.0813027,33.8789943 45.7880706,33.756768 C45.7684682,33.7465164 45.6567517,33.6711738 45.4529212,33.53074 C45.3448373,33.458465 45.24315,33.3770549 45.1489769,33.2874044 L39.5291214,28.5023499 L33.8760355,33.2874044 C33.7817512,33.3772016 33.6799342,33.4587413 33.5717051,33.531126 L33.256691,33.7301311 C32.8457603,33.981831 32.0131219,33.9932192 31.9204072,33.9819596 C31.7463027,33.9674575 31.574475,33.9327595 31.4083858,33.8785645 C31.1310132,33.7607989 30.871445,33.6048761 30.6372011,33.4153132 C30.567029,33.3456162 30.451345,33.2702205 30.3909187,33.1919232 C30.2994909,33.0849893 30.2366174,33.0048854 30.163784,32.8786494 C29.9700047,32.5368304 29.8723784,32.1489267 29.881265,31.7561014 C29.881265,31.7475227 29.8824217,24.6207616 29.8847351,10.3758183 L12.3789444,10.3758183 L12.3789444,55.7518883 L53.6289444,55.7518883 L53.6289444,10.3758183 L49.1232376,10.3758183 Z" id="Shape"></path>
                </g>
            </g>
        </g>
    </g>
</svg>
